<svg width="8" height="8" viewBox="0 0 8 8" fill="none" xmlns="http://www.w3.org/2000/svg">
<path d="M6.912 0.0999997C7.07067 0.0999997 7.206 0.160666 7.318 0.282C7.43933 0.393999 7.5 0.529333 7.5 0.688V6.512C7.5 6.58667 7.486 6.66133 7.458 6.736C7.39267 6.88533 7.28533 6.99267 7.136 7.058C7.06133 7.086 6.98667 7.1 6.912 7.1H1.088C0.948 7.08133 0.826667 7.016 0.724 6.904C0.630667 6.792 0.584 6.666 0.584 6.526C0.584 6.37667 0.630667 6.246 0.724 6.134C0.826667 6.022 0.948 5.95667 1.088 5.938H5.512L0.668 1.094C0.574667 0.972666 0.532667 0.841999 0.542 0.701999C0.551334 0.552666 0.607333 0.426666 0.71 0.323999C0.822 0.212 0.948 0.151333 1.088 0.142C1.23733 0.132666 1.37267 0.174666 1.494 0.268L6.338 5.112V0.688C6.338 0.529333 6.394 0.393999 6.506 0.282C6.618 0.160666 6.75333 0.0999997 6.912 0.0999997Z" fill="#002B79"/>
</svg>
